<mxfile host="app.diagrams.net" modified="2022-04-26T12:59:16.991Z" agent="5.0 (Windows NT 10.0; Win64; x64) AppleWebKit/537.36 (KHTML, like Gecko) Chrome/100.0.4896.127 Safari/537.36" etag="k_y5Xq5oF3r5rDL2ej1b" version="17.4.5" type="github">
  <diagram name="Page-1" id="e7e014a7-5840-1c2e-5031-d8a46d1fe8dd">
    <mxGraphModel dx="1108" dy="486" grid="1" gridSize="10" guides="1" tooltips="1" connect="1" arrows="1" fold="1" page="1" pageScale="1" pageWidth="1169" pageHeight="826" background="none" math="0" shadow="0">
      <root>
        <mxCell id="0" />
        <mxCell id="1" parent="0" />
        <mxCell id="D-PA6zkONpYSLqW8BzD_-41" value="" style="rounded=0;whiteSpace=wrap;html=1;" vertex="1" parent="1">
          <mxGeometry x="270" y="40" width="280" height="290" as="geometry" />
        </mxCell>
        <mxCell id="D-PA6zkONpYSLqW8BzD_-50" value="Carga del menú diario y envío de notificación" style="ellipse;whiteSpace=wrap;html=1;" vertex="1" parent="1">
          <mxGeometry x="300" y="80" width="210" height="40" as="geometry" />
        </mxCell>
        <mxCell id="D-PA6zkONpYSLqW8BzD_-57" style="edgeStyle=orthogonalEdgeStyle;rounded=0;orthogonalLoop=1;jettySize=auto;html=1;entryX=0.002;entryY=0.667;entryDx=0;entryDy=0;entryPerimeter=0;" edge="1" parent="1" target="D-PA6zkONpYSLqW8BzD_-56">
          <mxGeometry relative="1" as="geometry">
            <mxPoint x="90" y="190" as="sourcePoint" />
            <Array as="points">
              <mxPoint x="170" y="190" />
              <mxPoint x="170" y="247" />
            </Array>
          </mxGeometry>
        </mxCell>
        <mxCell id="D-PA6zkONpYSLqW8BzD_-63" style="edgeStyle=orthogonalEdgeStyle;rounded=0;orthogonalLoop=1;jettySize=auto;html=1;entryX=0;entryY=0.5;entryDx=0;entryDy=0;" edge="1" parent="1" source="D-PA6zkONpYSLqW8BzD_-52" target="D-PA6zkONpYSLqW8BzD_-59">
          <mxGeometry relative="1" as="geometry">
            <Array as="points">
              <mxPoint x="140" y="210" />
              <mxPoint x="140" y="210" />
            </Array>
          </mxGeometry>
        </mxCell>
        <mxCell id="D-PA6zkONpYSLqW8BzD_-67" style="edgeStyle=orthogonalEdgeStyle;rounded=0;orthogonalLoop=1;jettySize=auto;html=1;" edge="1" parent="1" source="D-PA6zkONpYSLqW8BzD_-52" target="D-PA6zkONpYSLqW8BzD_-50">
          <mxGeometry relative="1" as="geometry">
            <Array as="points">
              <mxPoint x="65" y="100" />
            </Array>
          </mxGeometry>
        </mxCell>
        <mxCell id="D-PA6zkONpYSLqW8BzD_-52" value="Administrativo &lt;br&gt;del comedor" style="shape=umlActor;verticalLabelPosition=bottom;verticalAlign=top;html=1;" vertex="1" parent="1">
          <mxGeometry x="50" y="170" width="30" height="60" as="geometry" />
        </mxCell>
        <mxCell id="D-PA6zkONpYSLqW8BzD_-61" style="edgeStyle=orthogonalEdgeStyle;rounded=0;orthogonalLoop=1;jettySize=auto;html=1;entryX=0.446;entryY=1.021;entryDx=0;entryDy=0;entryPerimeter=0;" edge="1" parent="1" source="D-PA6zkONpYSLqW8BzD_-55" target="D-PA6zkONpYSLqW8BzD_-60">
          <mxGeometry relative="1" as="geometry" />
        </mxCell>
        <mxCell id="D-PA6zkONpYSLqW8BzD_-64" style="edgeStyle=orthogonalEdgeStyle;rounded=0;orthogonalLoop=1;jettySize=auto;html=1;entryX=1;entryY=0.5;entryDx=0;entryDy=0;" edge="1" parent="1" target="D-PA6zkONpYSLqW8BzD_-59">
          <mxGeometry relative="1" as="geometry">
            <mxPoint x="690" y="210" as="sourcePoint" />
            <Array as="points">
              <mxPoint x="650" y="210" />
              <mxPoint x="650" y="210" />
            </Array>
          </mxGeometry>
        </mxCell>
        <mxCell id="D-PA6zkONpYSLqW8BzD_-55" value="Comensal" style="shape=umlActor;verticalLabelPosition=bottom;verticalAlign=top;html=1;" vertex="1" parent="1">
          <mxGeometry x="710" y="190" width="30" height="60" as="geometry" />
        </mxCell>
        <mxCell id="D-PA6zkONpYSLqW8BzD_-56" value="validar perfiles comensales" style="ellipse;whiteSpace=wrap;html=1;" vertex="1" parent="1">
          <mxGeometry x="295" y="140" width="210" height="40" as="geometry" />
        </mxCell>
        <mxCell id="D-PA6zkONpYSLqW8BzD_-59" value="Iniciar y cierre de sesion" style="ellipse;whiteSpace=wrap;html=1;" vertex="1" parent="1">
          <mxGeometry x="305" y="190" width="200" height="40" as="geometry" />
        </mxCell>
        <mxCell id="D-PA6zkONpYSLqW8BzD_-60" value="Puede confirmar asistencia" style="ellipse;whiteSpace=wrap;html=1;" vertex="1" parent="1">
          <mxGeometry x="300" y="250" width="210" height="40" as="geometry" />
        </mxCell>
        <mxCell id="D-PA6zkONpYSLqW8BzD_-66" value="COMEDOR - EETP 277" style="text;html=1;resizable=0;autosize=1;align=center;verticalAlign=middle;points=[];fillColor=none;strokeColor=none;rounded=0;" vertex="1" parent="1">
          <mxGeometry x="275" y="40" width="140" height="20" as="geometry" />
        </mxCell>
      </root>
    </mxGraphModel>
  </diagram>
</mxfile>
